<svg xmlns="http://www.w3.org/2000/svg" viewBox="0 0 1200 800" role="img" aria-labelledby="title desc">
  <title id="title">CarVista pickup placeholder</title>
  <desc id="desc">Pickup placeholder image for catalog vehicles.</desc>
  <defs>
    <linearGradient id="bg" x1="0%" x2="100%" y1="0%" y2="100%">
      <stop offset="0%" stop-color="#f6f9fd"/>
      <stop offset="100%" stop-color="#d9e6fa"/>
    </linearGradient>
  </defs>
  <rect width="1200" height="800" fill="url(#bg)"/>
  <rect x="180" y="430" width="840" height="120" rx="60" fill="#0f2d62" opacity="0.14"/>
  <path d="M174 502c0-31 25-56 56-56h78l86-117c18-24 46-39 76-39h175c26 0 50 10 68 29l86 91h157c31 0 56 25 56 56v86h-100c-8-47-48-80-96-80s-88 33-96 80H430c-8-47-48-80-96-80s-88 33-96 80h-64z" fill="#214d90"/>
  <rect x="776" y="355" width="172" height="78" rx="12" fill="#214d90"/>
  <circle cx="344" cy="552" r="58" fill="#163768"/>
  <circle cx="344" cy="552" r="27" fill="#f7f9fc"/>
  <circle cx="804" cy="552" r="58" fill="#163768"/>
  <circle cx="804" cy="552" r="27" fill="#f7f9fc"/>
  <text x="600" y="170" text-anchor="middle" font-family="Arial, sans-serif" font-size="54" font-weight="700" fill="#0f2d62">Pickup</text>
  <text x="600" y="228" text-anchor="middle" font-family="Arial, sans-serif" font-size="26" fill="#49627f">Catalog placeholder image</text>
</svg>
