<svg xmlns="http://www.w3.org/2000/svg" viewBox="0 0 1200 800" role="img" aria-labelledby="title desc">
  <title id="title">CarVista sedan placeholder</title>
  <desc id="desc">Sedan placeholder image for catalog vehicles.</desc>
  <defs>
    <linearGradient id="bg" x1="0%" x2="100%" y1="0%" y2="100%">
      <stop offset="0%" stop-color="#f7f9fc"/>
      <stop offset="100%" stop-color="#dfe9f8"/>
    </linearGradient>
  </defs>
  <rect width="1200" height="800" fill="url(#bg)"/>
  <rect x="220" y="420" width="760" height="120" rx="60" fill="#0f2d62" opacity="0.15"/>
  <path d="M270 470h690c26 0 48 20 48 46v36H188v-34c0-27 22-48 49-48h33l62-120c18-34 53-56 91-56h252c40 0 78 19 102 52l76 104h21c27 0 49 21 49 48v54h-70c-9-46-49-78-96-78s-88 32-96 78H438c-8-46-49-78-96-78s-88 32-96 78H176v-34c0-27 22-48 49-48h45z" fill="#214d90"/>
  <circle cx="342" cy="552" r="58" fill="#163768"/>
  <circle cx="342" cy="552" r="28" fill="#f7f9fc"/>
  <circle cx="760" cy="552" r="58" fill="#163768"/>
  <circle cx="760" cy="552" r="28" fill="#f7f9fc"/>
  <text x="600" y="170" text-anchor="middle" font-family="Arial, sans-serif" font-size="54" font-weight="700" fill="#0f2d62">Sedan</text>
  <text x="600" y="228" text-anchor="middle" font-family="Arial, sans-serif" font-size="26" fill="#49627f">Catalog placeholder image</text>
</svg>
